HIERARCHY
ROOT hip
{
  OFFSET 0 0 0
  CHANNELS 6 Xposition Yposition Zposition Zrotation Yrotation Xrotation
  JOINT abdomen
  {
    OFFSET 0 20.6881 -0.73152
    CHANNELS 3 Zrotation Xrotation Yrotation
    JOINT chest
    {
      OFFSET 0 11.7043 -0.48768
      CHANNELS 3 Zrotation Xrotation Yrotation
      JOINT neck
      {
        OFFSET 0 22.1894 -2.19456
        CHANNELS 3 Zrotation Xrotation Yrotation
        JOINT head
        {
          OFFSET -0.24384 7.07133 1.2192
          CHANNELS 3 Zrotation Xrotation Yrotation
          JOINT leftEye
          {
            OFFSET 4.14528 8.04674 8.04672
            CHANNELS 3 Zrotation Xrotation Yrotation
            End Site
            {
              OFFSET 1 0 0
            }
          }
          JOINT rightEye
          {
            OFFSET -3.6576 8.04674 8.04672
            CHANNELS 3 Zrotation Xrotation Yrotation
            End Site
            {
              OFFSET 1 0 0
            }
          }
        }
      }
      JOINT rCollar
      {
        OFFSET -2.68224 19.2634 -4.8768
        CHANNELS 3 Zrotation Xrotation Yrotation
        JOINT rShldr
        {
          OFFSET -8.77824 -1.95073 1.46304
          CHANNELS 3 Zrotation Xrotation Yrotation
          JOINT rForeArm
          {
            OFFSET -28.1742 -1.7115 0.48768
            CHANNELS 3 Zrotation Xrotation Yrotation
            JOINT rHand
            {
              OFFSET -22.5879 0.773209 7.07136
              CHANNELS 3 Zrotation Xrotation Yrotation
              JOINT rThumb1
              {
                OFFSET -1.2192 -0.487915 3.41376
                CHANNELS 3 Zrotation Xrotation Yrotation
                JOINT rThumb2
                {
                  OFFSET -3.37035 -0.52449 3.41376
                  CHANNELS 3 Zrotation Xrotation Yrotation
                  End Site
                  {
                    OFFSET -1.78271 -1.18214 1.43049
                  }
                }
              }
              JOINT rIndex1
              {
                OFFSET -7.75947 0.938293 5.60832
                CHANNELS 3 Zrotation Xrotation Yrotation
                JOINT rIndex2
                {
                  OFFSET -2.54057 -0.884171 1.56538
                  CHANNELS 3 Zrotation Xrotation Yrotation
                  End Site
                  {
                    OFFSET -1.62519 -0.234802 1.16502
                  }
                }
              }
              JOINT rMid1
              {
                OFFSET -8.24714 1.18213 3.41376
                CHANNELS 3 Zrotation Xrotation Yrotation
                JOINT rMid2
                {
                  OFFSET -3.10165 -0.590103 1.0647
                  CHANNELS 3 Zrotation Xrotation Yrotation
                  End Site
                  {
                    OFFSET -2.48547 -0.328903 0.83742
                  }
                }
              }
              JOINT rRing1
              {
                OFFSET -8.82822 0.546677 1.51678
                CHANNELS 3 Zrotation Xrotation Yrotation
                JOINT rRing2
                {
                  OFFSET -2.60934 -0.819778 -0.0198488
                  CHANNELS 3 Zrotation Xrotation Yrotation
                  End Site
                  {
                    OFFSET -2.33842 -0.294052 0.168128
                  }
                }
              }
              JOINT rPinky1
              {
                OFFSET -8.27202 -0.0477905 -0.4584
                CHANNELS 3 Zrotation Xrotation Yrotation
                JOINT rPinky2
                {
                  OFFSET -1.82734 -0.647385 -0.700984
                  CHANNELS 3 Zrotation Xrotation Yrotation
                  End Site
                  {
                    OFFSET -1.69225 -0.51767 -0.607171
                  }
                }
              }
            }
          }
        }
      }
      JOINT lCollar
      {
        OFFSET 2.68224 19.2634 -4.8768
        CHANNELS 3 Zrotation Xrotation Yrotation
        JOINT lShldr
        {
          OFFSET 8.77824 -1.95073 1.46304
          CHANNELS 3 Zrotation Xrotation Yrotation
          JOINT lForeArm
          {
            OFFSET 28.1742 -1.7115 0.48768
            CHANNELS 3 Zrotation Xrotation Yrotation
            JOINT lHand
            {
              OFFSET 22.5879 0.773209 7.07136
              CHANNELS 3 Zrotation Xrotation Yrotation
              JOINT lThumb1
              {
                OFFSET 1.2192 -0.487915 3.41376
                CHANNELS 3 Zrotation Xrotation Yrotation
                JOINT lThumb2
                {
                  OFFSET 3.37035 -0.52449 3.41376
                  CHANNELS 3 Zrotation Xrotation Yrotation
                  End Site
                  {
                    OFFSET 1.78271 -1.18214 1.43049
                  }
                }
              }
              JOINT lIndex1
              {
                OFFSET 7.75947 0.938293 5.60832
                CHANNELS 3 Zrotation Xrotation Yrotation
                JOINT lIndex2
                {
                  OFFSET 2.54057 -0.884171 1.56538
                  CHANNELS 3 Zrotation Xrotation Yrotation
                  End Site
                  {
                    OFFSET 1.62519 -0.234802 1.16502
                  }
                }
              }
              JOINT lMid1
              {
                OFFSET 8.24714 1.18213 3.41376
                CHANNELS 3 Zrotation Xrotation Yrotation
                JOINT lMid2
                {
                  OFFSET 3.10165 -0.590103 1.0647
                  CHANNELS 3 Zrotation Xrotation Yrotation
                  End Site
                  {
                    OFFSET 2.48547 -0.328903 0.83742
                  }
                }
              }
              JOINT lRing1
              {
                OFFSET 8.82822 0.546677 1.51678
                CHANNELS 3 Zrotation Xrotation Yrotation
                JOINT lRing2
                {
                  OFFSET 2.60934 -0.819778 -0.0198488
                  CHANNELS 3 Zrotation Xrotation Yrotation
                  End Site
                  {
                    OFFSET 2.33842 -0.294052 0.168128
                  }
                }
              }
              JOINT lPinky1
              {
                OFFSET 8.27202 -0.0477905 -0.4584
                CHANNELS 3 Zrotation Xrotation Yrotation
                JOINT lPinky2
                {
                  OFFSET 1.82734 -0.647385 -0.700984
                  CHANNELS 3 Zrotation Xrotation Yrotation
                  End Site
                  {
                    OFFSET 1.69225 -0.51767 -0.607171
                  }
                }
              }
            }
          }
        }
      }
    }
  }
  JOINT rButtock
  {
    OFFSET -8.77824 4.35084 1.2192
    CHANNELS 3 Zrotation Xrotation Yrotation
    JOINT rThigh
    {
      OFFSET 0 -1.70687 -2.19456
      CHANNELS 3 Zrotation Xrotation Yrotation
      JOINT rShin
      {
        OFFSET 0 -36.8199 0.73152
        CHANNELS 3 Zrotation Xrotation Yrotation
        JOINT rFoot
        {
          OFFSET 0.73152 -45.1104 -5.12064
          CHANNELS 3 Zrotation Xrotation Yrotation
          End Site
          {
            OFFSET -1.1221 -3.69964 12.103
          }
        }
      }
    }
  }
  JOINT lButtock
  {
    OFFSET 8.77824 4.35084 1.2192
    CHANNELS 3 Zrotation Xrotation Yrotation
    JOINT lThigh
    {
      OFFSET 0 -1.70687 -2.19456
      CHANNELS 3 Zrotation Xrotation Yrotation
      JOINT lShin
      {
        OFFSET 0 -36.8199 0.73152
        CHANNELS 3 Zrotation Xrotation Yrotation
        JOINT lFoot
        {
          OFFSET -0.73152 -45.1104 -5.12064
          CHANNELS 3 Zrotation Xrotation Yrotation
          End Site
          {
            OFFSET 1.1221 -3.69964 12.103
          }
        }
      }
    }
  }
}
MOTION
Frames:	4
Frame Time:	0.03333
0.12306701391935349 18.6713844537735 -0.1847507432103157 -4.864490032196045 -6.373247146606445 6.896378517150879 -3.1367764472961426 13.672961235046387 3.7024762630462646 2.7079365253448486 -9.249808311462402 1.242004156112671 -5.639033794403076 14.761703491210938 -3.912804365158081 8.878289222717285 -25.07093620300293 -5.341543674468994 -0.1250493824481964 -0.10346699506044388 0.057457927614450455 -0.15256011486053467 0.054391004145145416 0.07152319699525833 0.043540604412555695 0.07617038488388062 0.012302868068218231 53.916133880615234 36.0311164855957 8.173531532287598 -28.12508201599121 -31.868181228637695 70.50935363769531 -0.36050447821617126 1.0052422285079956 -0.6586645841598511 -0.0323307104408741 0.026635583490133286 0.046056441962718964 0.00035831931745633483 -0.07347621768712997 0.01573079638183117 0.038147933781147 0.060103561729192734 -0.02582733705639839 7.547393798828125 5.541015625 0.4201902747154236 -0.0585477389395237 -0.10809628665447235 0.03873980790376663 2.8371541500091553 1.0535666942596436 0.05586327239871025 -0.029905840754508972 -0.11337604373693466 0.06394270062446594 10.320659637451172 0.8587538003921509 0.022937918081879616 -0.12428189069032669 -0.03967946767807007 0.01635247841477394 2.450376510620117 -0.624653160572052 -0.16999609768390656 -0.03136129304766655 -0.10788586735725403 0.12032655626535416 -57.133758544921875 37.83281707763672 -20.99022674560547 27.183839797973633 -34.23183059692383 -74.73291015625 0.4142982065677643 -14.435917854309082 2.3979921340942383 0.0014972684439271688 -0.1572391539812088 0.06479476392269135 -0.011249108240008354 0.06706761568784714 0.11300823092460632 -0.006195469293743372 0.0017886951100081205 -0.02888631261885166 -7.761988162994385 5.483994483947754 -0.48224180936813354 -0.04472330957651138 -0.01931362971663475 -0.0269660372287035 -2.890143871307373 0.9592618942260742 -0.13476793467998505 -0.12844589352607727 -0.12837114930152893 0.03840695694088936 -10.184035301208496 0.6900920867919922 -0.09675618261098862 -0.021912137046456337 -0.03445478528738022 -0.035485778003931046 -2.223801374435425 -0.8300186991691589 0.19431805610656738 -0.017541592940688133 -0.08566037565469742 -0.08748795092105865 -28.679967880249023 -44.31071090698242 -24.936941146850586 -1.7704945802688599 67.92212677001953 2.167494535446167 -4.160568714141846 -13.125741004943848 -11.597230911254883 -0.030926011502742767 0.031862709671258926 -0.06530187278985977 32.21007537841797 -43.97163391113281 25.27033042907715 2.800741672515869 69.39393615722656 -3.3497939109802246 4.276118278503418 -10.978384017944336 13.781473159790039
0.12197084724903107 33.286112546920776 -0.292779877781868 -2.2426207065582275 2.9645180702209473 5.952079772949219 -2.834888458251953 13.764609336853027 3.934739589691162 2.936908721923828 -8.664445877075195 1.48148775100708 -5.869878768920898 14.570104598999023 -4.905921936035156 8.50711441040039 -25.746692657470703 -8.713988304138184 -0.19385185837745667 0.07850014418363571 -0.12156501412391663 0.04766631871461868 -0.016803020611405373 -0.024596238508820534 0.13289420306682587 0.06002332270145416 0.024690968915820122 47.87451171875 42.716617584228516 16.392536163330078 -27.314041137695312 -32.216758728027344 71.03426361083984 0.26801928877830505 2.473595142364502 1.834429383277893 -0.09083680063486099 0.05420619249343872 0.12600281834602356 -0.10655031353235245 0.061432380229234695 -0.03979096934199333 -0.023940809071063995 0.02621772326529026 -0.1425294578075409 7.709044933319092 5.532000541687012 0.3577408194541931 -0.057725388556718826 -0.02771642617881298 0.02877625823020935 2.9326910972595215 0.9974209070205688 0.189509779214859 0.2780389189720154 0.40886926651000977 -0.1475774198770523 10.237323760986328 0.6465850472450256 0.1575387865304947 0.02982289530336857 0.053377676755189896 -0.031082039698958397 2.2202155590057373 -0.6678207516670227 -0.08158896118402481 0.25972989201545715 0.14473441243171692 -0.47435954213142395 -57.73749542236328 37.20104217529297 -24.182519912719727 30.587553024291992 -33.63312530517578 -72.41481018066406 0.8389023542404175 -21.87554168701172 2.6101090908050537 -0.08819985389709473 0.04617030918598175 -0.026592878624796867 0.08171125501394272 0.07392756640911102 -0.02744564414024353 -0.10704627633094788 -0.1318366974592209 0.04074065014719963 -7.646598815917969 5.369909763336182 -0.36786970496177673 0.018001364544034004 -0.03506896644830704 -0.09630121290683746 -2.8957602977752686 0.9834436774253845 -0.15396837890148163 0.3086322546005249 0.2704991102218628 0.01173206977546215 -10.616530418395996 1.1845449209213257 0.21311655640602112 -0.049427952617406845 0.13195987045764923 -0.00432934146374464 -2.2902352809906006 -0.6953251361846924 0.31954044103622437 0.05528953671455383 0.08824066072702408 0.05394870787858963 -31.835851669311523 -49.41297149658203 -27.041210174560547 -1.362317442893982 66.71382141113281 2.679218053817749 -4.013251781463623 -14.252503395080566 -10.751218795776367 -0.09332935512065887 -0.03127826377749443 -0.07890178263187408 33.183345794677734 -43.04777908325195 26.316614151000977 1.5889090299606323 67.87908935546875 -3.394296646118164 5.345179080963135 -13.332308769226074 16.28321647644043
0.18517384305596352 48.21037948131561 -0.2676782198250294 -8.99149227142334 1.0656286478042603 -1.483728051185608 -2.4641594886779785 11.309623718261719 7.415988445281982 1.5649404525756836 -9.469779968261719 1.9482650756835938 -5.98686408996582 15.330083847045898 -5.868574142456055 8.570327758789062 -23.27383804321289 -10.27458381652832 -0.004267760086804628 -0.2199966311454773 0.1492672860622406 -0.005611160304397345 -0.007945648394525051 0.050259433686733246 -0.01676037162542343 -0.016601668670773506 0.031781185418367386 22.054214477539062 19.42430877685547 57.4296760559082 -22.361722946166992 -16.267261505126953 45.71015930175781 -0.6397934556007385 16.88556480407715 2.3057329654693604 0.09480685740709305 0.10724444687366486 0.17040657997131348 0.02985953912138939 -0.1162724494934082 -0.045471467077732086 0.09358658641576767 0.06534877419471741 0.12546908855438232 7.466922283172607 5.529994010925293 0.40042340755462646 0.006455887109041214 -0.042999062687158585 0.14700056612491608 2.9003782272338867 0.8597105145454407 0.1555628925561905 -0.08614739775657654 -0.18953527510166168 0.09076797217130661 10.423563957214355 0.917182981967926 -0.018682101741433144 -0.3386112451553345 -0.05557285621762276 0.005094198044389486 2.6140990257263184 -0.5084811449050903 -0.3991793990135193 -0.1059909462928772 -0.2013317495584488 0.1651933193206787 -73.5382308959961 57.670406341552734 0.5949090719223022 27.19341468811035 -36.17960739135742 -77.49571228027344 1.512352705001831 -35.57933807373047 5.496528148651123 -0.033275097608566284 -0.17829430103302002 0.12748761475086212 -0.08365223556756973 -0.0119741540402174 0.08853116631507874 0.08650586009025574 0.11814676970243454 0.014867390505969524 -7.8500871658325195 5.546872138977051 -0.5307506322860718 -0.09426002949476242 -0.006226216442883015 0.06131777539849281 -2.9397075176239014 1.081237554550171 -0.12228268384933472 -0.18428701162338257 -0.1563372164964676 0.03576713427901268 -10.057785987854004 0.6496292352676392 -0.22062428295612335 0.03564833104610443 0.059559330344200134 0.00018977481522597373 -2.2848219871520996 -0.957755446434021 0.13823682069778442 0.143666073679924 -0.024939747527241707 0.10638251155614853 -16.06957244873047 -35.88092803955078 -13.369397163391113 -1.3525255918502808 63.443138122558594 1.6223045587539673 -6.2012505531311035 -18.130603790283203 -13.160828590393066 0.017072558403015137 0.02211514115333557 -0.1285533457994461 23.894437789916992 -47.0763053894043 15.557906150817871 3.154937982559204 67.84603118896484 -3.326303243637085 3.4969940185546875 -11.898184776306152 11.73902416229248
0.3028063103556633 59.747129678726196 -0.07108990103006363 -8.388067245483398 7.672358989715576 -1.4417493343353271 -0.9837433695793152 11.127606391906738 9.879426956176758 1.0087974071502686 -9.244380950927734 3.004732131958008 -6.784902095794678 14.748648643493652 -7.2421064376831055 8.638154983520508 -21.517366409301758 -13.033411979675293 -0.138441264629364 -0.029235156252980232 -0.15737050771713257 -0.1031363308429718 -0.012153096497058868 -0.017128851264715195 0.17914900183677673 0.05914556235074997 0.014060793444514275 12.911946296691895 1.0564578771591187 78.01669311523438 -14.527373313903809 -7.992773532867432 29.260400772094727 -0.6797128319740295 22.437849044799805 3.634195327758789 -0.00803062878549099 0.0321023091673851 0.22684182226657867 0.026430660858750343 0.03714747354388237 0.041394900530576706 0.061046160757541656 0.11020385473966599 -0.11640434712171555 7.549149990081787 5.507725238800049 0.2800784111022949 -0.09538374096155167 -0.1054191067814827 -0.040234994143247604 2.8233540058135986 0.9455463886260986 0.1027069166302681 0.13688625395298004 0.005524240434169769 -0.058824751526117325 10.215049743652344 0.6851947903633118 0.12320252507925034 -0.12434865534305573 0.0794687569141388 0.009992988780140877 2.4012033939361572 -0.60959392786026 -0.020291423425078392 -0.03989264369010925 -0.150507390499115 -0.003333074040710926 -97.41046142578125 66.00418853759766 24.009183883666992 28.00527000427246 -37.33670425415039 -79.15533447265625 3.4260518550872803 -45.1328239440918 7.8988423347473145 -0.11949179321527481 -0.09236787259578705 -0.029855920001864433 0.027811147272586823 -0.021351177245378494 -0.0831039622426033 -0.14789079129695892 -0.09022851288318634 0.014271490275859833 -7.597411155700684 5.354636192321777 -0.3907020390033722 -0.0009796895319595933 -0.03846843168139458 0.05506753921508789 -3.018089532852173 0.9516403079032898 -0.12458730489015579 -0.01400610152631998 -0.00033205069485120475 -0.1348983645439148 -10.146845817565918 0.7784992456436157 -0.17023539543151855 -0.05025041475892067 0.016277605667710304 -0.07952147722244263 -2.2841641902923584 -0.6328954100608826 0.3577016294002533 0.12123386561870575 0.00896428618580103 0.03414619714021683 -5.979700565338135 -27.820632934570312 -5.565309524536133 -0.9727678298950195 59.512489318847656 1.8275146484375 -8.19465446472168 -20.95119285583496 -14.820390701293945 -0.06623094528913498 -0.03176553547382355 -0.07334063202142715 23.842716217041016 -51.48056411743164 16.175493240356445 3.417253017425537 68.66449737548828 -4.269421577453613 3.00191330909729 -12.927268981933594 7.455720901489258
